<?xml version="1.0" encoding="UTF-8"?>
<svg version="1.1" xmlns="http://www.w3.org/2000/svg" width="1024" height="1024">
<path d="M0 0 C337.92 0 675.84 0 1024 0 C1024 337.92 1024 675.84 1024 1024 C686.08 1024 348.16 1024 0 1024 C0 686.08 0 348.16 0 0 Z " fill="#0A2536" transform="translate(0,0)"/>
<path d="M0 0 C3.59073893 3.86680451 3.37598735 6.86050297 3.23083496 11.92025757 C2.83727239 17.17107111 1.93651026 22.2884469 0.953125 27.45703125 C0.74065125 28.60362717 0.52817749 29.75022308 0.30926514 30.93156433 C-0.13968992 33.3367524 -0.59376302 35.74099029 -1.05273438 38.14428711 C-1.75074842 41.81643731 -2.42306828 45.49269361 -3.09375 49.16992188 C-3.5349142 51.5159159 -3.97757091 53.86162986 -4.421875 56.20703125 C-4.61996765 57.30086624 -4.8180603 58.39470123 -5.02215576 59.52168274 C-6.13445987 65.22572948 -7.19856139 69.53010405 -11 74 C-14.10596537 75.2435538 -16.80472701 74.8752728 -20 74 C-23.08896258 72.05087601 -25.48774293 69.63431005 -28 67 C-29.33305615 65.68721847 -30.66637383 64.37470245 -32 63.0625 C-33.00260713 62.04422713 -34.00363813 61.02438455 -35 60 C-38.7902902 61.50933256 -40.58677989 63.68201518 -43.0625 66.875 C-46.44587873 71.12791264 -49.92926701 75.20377134 -53.625 79.1875 C-54.09695801 79.69732422 -54.56891602 80.20714844 -55.05517578 80.73242188 C-55.51520996 81.22935547 -55.97524414 81.72628906 -56.44921875 82.23828125 C-60.65098409 86.78751264 -64.69442513 91.46367084 -68.70703125 96.1796875 C-74.53568993 103.0226051 -80.45889741 109.74535907 -86.55859375 116.34765625 C-90.25754991 120.36620222 -93.83136535 124.48520187 -97.39794922 128.62109375 C-103.78697693 136.02750793 -110.20937736 143.38468807 -116.8125 150.6015625 C-120.91465603 155.09928357 -124.88975383 159.70296896 -128.8515625 164.32421875 C-129.62282471 165.2224939 -129.62282471 165.2224939 -130.40966797 166.13891602 C-131.46875935 167.37831632 -132.52250153 168.62230792 -133.57080078 169.87084961 C-135.73555572 172.43784638 -137.83992625 174.85442958 -140.328125 177.1171875 C-143.7769381 180.27158972 -144.93074347 181.93546005 -145.2421875 186.72265625 C-145.20959032 188.83973105 -145.12445931 190.94868372 -145.0222168 193.06347656 C-144.73745265 200.39679851 -146.78111459 204.46860144 -151.609375 209.765625 C-155.46798015 213.41182987 -159.72657912 216.07151735 -165 217 C-166.91770237 216.77966824 -168.83432016 216.54977456 -170.75 216.3125 C-175.19058647 216.19534885 -176.60417228 216.65698349 -180.015625 219.61328125 C-182.68742784 222.61316191 -185.10357702 225.80266051 -187.5 229.02441406 C-189.86251853 232.13598632 -192.43256515 235.05737288 -195 238 C-196.00244206 239.16699048 -197.00374287 240.33496225 -198.00390625 241.50390625 C-198.49906738 242.08156738 -198.99422852 242.65922852 -199.50439453 243.25439453 C-200.99193779 244.99059014 -202.47851508 246.72760829 -203.96484375 248.46484375 C-210.72650405 256.36549733 -217.52425522 264.23402535 -224.34130859 272.08691406 C-226.02812335 274.03243664 -227.71174018 275.98068401 -229.39453125 277.9296875 C-234.13278472 283.41410102 -238.87173689 288.88899211 -243.75 294.25 C-246.73863253 297.54292966 -249.58383605 300.91316769 -252.375 304.375 C-256.05636689 308.92860712 -259.92774473 313.23582516 -263.91357422 317.51904297 C-266.90412641 320.75176204 -269.73771685 324.06687666 -272.5 327.5 C-275.69931722 331.47629426 -279.02584945 335.26668298 -282.5 339 C-286.7895776 343.61001639 -290.80410897 348.37783236 -294.75390625 353.28515625 C-297.0883059 356.10673495 -299.51990598 358.80590712 -302 361.5 C-305.29331699 365.07792463 -308.44651321 368.71539666 -311.5 372.5 C-314.55348679 376.28460334 -317.70668301 379.92207537 -321 383.5 C-325.14527049 388.00516994 -329.04342676 392.66000332 -332.8984375 397.4140625 C-334.84974405 399.81511257 -336.81092591 402.20319777 -338.8125 404.5625 C-339.33457031 405.18253906 -339.85664063 405.80257813 -340.39453125 406.44140625 C-343.43711195 409.39515248 -345.29421731 409.95008066 -349.58984375 410.25390625 C-356.12199122 409.21487284 -360.24448523 403.51441073 -364.5625 398.9375 C-365.9227832 397.54241211 -365.9227832 397.54241211 -367.31054688 396.11914062 C-371.71400908 391.57517636 -375.97657642 386.93633804 -380.11987305 382.15551758 C-398.64509594 360.76885268 -398.64509594 360.76885268 -424.40136719 350.62744141 C-438.87561128 347.13262674 -452.23211238 337.78578575 -464 329 C-464.91136719 328.33097656 -465.82273437 327.66195313 -466.76171875 326.97265625 C-468.5218476 325.66715056 -470.26435909 324.33788987 -472 323 C-478.14588931 329.58241976 -484.08313167 336.23679883 -489.73046875 343.2578125 C-492.96330753 347.16392751 -496.38707675 350.87273828 -499.8359375 354.58984375 C-500.55007813 355.38519531 -501.26421875 356.18054688 -502 357 C-502.59167969 357.60457031 -503.18335938 358.20914062 -503.79296875 358.83203125 C-505.59106249 362.0616171 -505.14249622 365.17720877 -504.9375 368.75 C-504.7401366 376.29046772 -505.41876967 381.14996062 -510.61328125 386.734375 C-514.15881011 390.03619788 -517.23893119 391.80827948 -522 393 C-524.27481084 392.86932505 -526.54678117 392.67907496 -528.8125 392.4375 C-533.12600464 392.36953512 -535.19943027 392.35496264 -538.59375 395.08984375 C-540.88829983 397.97015014 -542.93900891 400.94926743 -545 404 C-546.46960908 405.693525 -547.96940088 407.36138958 -549.5 409 C-554.76981486 414.78574079 -559.67396049 420.85486121 -564.5703125 426.95703125 C-569.22444659 432.68412439 -569.22444659 432.68412439 -573.0859375 433.37109375 C-577.26823838 433.4924233 -579.44544699 433.35083966 -583.0625 431.0625 C-585.2877719 427.54513473 -585.8662027 425.47886939 -585.58984375 421.3671875 C-584.41112949 416.63671836 -581.20327443 413.54572976 -578 410 C-577.01798948 408.86573715 -576.03903625 407.72882305 -575.0625 406.58984375 C-572.86454016 404.03115517 -570.65622971 401.48210679 -568.4375 398.94140625 C-565.04697227 395.05755288 -561.67392873 391.15905699 -558.3125 387.25 C-557.80759033 386.66581299 -557.30268066 386.08162598 -556.7824707 385.47973633 C-552.48661729 380.48034731 -550.82358304 377.93759517 -550.6875 371.3125 C-550.17046209 362.80328284 -547.71865092 358.33070085 -541.5625 352.625 C-535.12266147 347.55035208 -528.90155094 347.74692541 -521 348 C-520.76410156 347.44441406 -520.52820313 346.88882812 -520.28515625 346.31640625 C-518.6872248 343.43624409 -516.694995 341.33630924 -514.4375 338.9375 C-511.02391359 335.26749396 -507.76044817 331.54001115 -504.625 327.625 C-500.62612684 322.64432465 -496.34819249 317.99050781 -491.89697266 313.41455078 C-489.94927067 311.36732651 -488.2256813 309.44634746 -486.9453125 306.9140625 C-487.0300912 303.94680788 -488.51447505 302.58291072 -490.375 300.3125 C-507.70133397 277.50353238 -515.43763762 248.52845111 -515.3125 220.1875 C-515.31067719 219.52980621 -515.30885437 218.87211243 -515.30697632 218.19448853 C-515.25992223 208.09134833 -514.66399076 198.78217406 -512 189 C-511.82307617 188.31196289 -511.64615234 187.62392578 -511.46386719 186.91503906 C-508.93153385 177.11372815 -505.6205642 168.03920143 -501 159 C-500.55011719 158.09121094 -500.10023438 157.18242187 -499.63671875 156.24609375 C-493.46447339 144.30149498 -485.27495466 133.68827706 -476 124 C-475.32839844 123.26523437 -474.65679687 122.53046875 -473.96484375 121.7734375 C-453.43510192 100.05412184 -421.11257157 84.14685903 -391.10839844 82.87768555 C-376.80249988 82.52940279 -362.92353878 82.49457735 -349 86 C-348.29343262 86.17692383 -347.58686523 86.35384766 -346.85888672 86.53613281 C-327.32278851 91.542285 -308.19379048 100.59829763 -293 114 C-292.19433594 114.68578125 -291.38867188 115.3715625 -290.55859375 116.078125 C-265.05474415 138.269268 -246.66081355 170.84296433 -244 205 C-243.80691042 210.10452523 -243.75500643 215.20506176 -243.75 220.3125 C-243.74899292 221.02353882 -243.74798584 221.73457764 -243.74694824 222.46716309 C-243.7621142 238.31558909 -245.1526561 253.12934369 -251 268 C-250.67 268.33 -250.34 268.66 -250 269 C-249.16597656 268.03320312 -248.33195312 267.06640625 -247.47265625 266.0703125 C-237.25150004 254.24010129 -237.25150004 254.24010129 -232.25 248.75 C-228.42168168 244.53046667 -224.83265413 240.14730858 -221.25 235.71875 C-219.06498431 233.07852271 -216.80828609 230.5327028 -214.5 228 C-210.53994948 223.65360308 -206.7949365 219.1742517 -203.15234375 214.55859375 C-201 212 -201 212 -198.87890625 210.16015625 C-196.13420065 207.72471325 -194.20953804 205.81254901 -193.77246094 202.03173828 C-193.68675938 198.90227118 -193.74803774 195.81840173 -193.99389648 192.69702148 C-194.45462125 185.78615003 -192.50432641 181.23046672 -188.2890625 175.79296875 C-187.73992187 175.26316406 -187.19078125 174.73335937 -186.625 174.1875 C-186.08101562 173.64480469 -185.53703125 173.10210937 -184.9765625 172.54296875 C-179.70847082 168.43052564 -175.96468873 167.84306854 -169.375 168.1875 C-164.67571128 168.13261937 -161.2529957 167.6980178 -157.78125 164.35546875 C-155.16758927 161.40358484 -152.86444044 158.223397 -150.55224609 155.03320312 C-147.85238289 151.49679847 -144.76135228 148.3350895 -141.6875 145.125 C-140.49862094 143.86458061 -139.31106534 142.60291123 -138.125 141.33984375 C-137.57972656 140.75960449 -137.03445313 140.17936523 -136.47265625 139.58154297 C-134.12960265 137.06524635 -131.87037001 134.48161449 -129.62890625 131.875 C-127.66334911 129.61248819 -125.64326691 127.40309317 -123.625 125.1875 C-120.55253227 121.78916448 -117.61557378 118.32409477 -114.75 114.75 C-110.09341188 108.99053574 -105.07165823 103.62051301 -100.0078125 98.22265625 C-97.1552359 95.17938059 -94.3907379 92.07055866 -91.6640625 88.9140625 C-88.16707067 84.891701 -84.57140635 80.95620434 -81 77 C-78.74891999 74.49966546 -76.49870784 71.99856202 -74.25 69.49609375 C-72.75517311 67.83777017 -71.2551942 66.18407559 -69.75 64.53515625 C-65.7277005 60.1148167 -61.78383775 55.63717401 -57.9375 51.0625 C-57.18339844 50.16660156 -56.42929687 49.27070313 -55.65234375 48.34765625 C-53.71221959 46.06959406 -53.71221959 46.06959406 -54 43 C-55.47273908 41.22053611 -55.47273908 41.22053611 -57.46484375 39.49609375 C-58.18220703 38.83802734 -58.89957031 38.17996094 -59.63867188 37.50195312 C-60.39728516 36.82068359 -61.15589844 36.13941406 -61.9375 35.4375 C-63.42799787 34.08446906 -64.91638762 32.72911105 -66.40234375 31.37109375 C-67.39995728 30.4728186 -67.39995728 30.4728186 -68.41772461 29.55639648 C-70.67023269 27.3407293 -70.97864885 26.25087598 -71.25 23.0625 C-71 20 -71 20 -69.76220703 18.40722656 C-67.7220745 16.77806004 -66.05573361 16.16069271 -63.5546875 15.421875 C-62.65459961 15.15149414 -61.75451172 14.88111328 -60.82714844 14.60253906 C-59.85293945 14.32120117 -58.87873047 14.03986328 -57.875 13.75 C-56.86469727 13.45061523 -55.85439453 13.15123047 -54.81347656 12.84277344 C-44.1945178 9.71609814 -33.53590662 6.72009888 -22.86132812 3.78930664 C-20.90469217 3.24956227 -18.9503433 2.70147613 -16.99804688 2.14624023 C-16.03447266 1.87497314 -15.07089844 1.60370605 -14.078125 1.32421875 C-12.79276855 0.95816528 -12.79276855 0.95816528 -11.48144531 0.5847168 C-7.7684709 -0.29019207 -3.73337186 -0.98778797 0 0 Z " fill="#0A2536" transform="translate(807,194)"/>
<path d="M0 0 C3.59073893 3.86680451 3.37598735 6.86050297 3.23083496 11.92025757 C2.83727239 17.17107111 1.93651026 22.2884469 0.953125 27.45703125 C0.74065125 28.60362717 0.52817749 29.75022308 0.30926514 30.93156433 C-0.13968992 33.3367524 -0.59376302 35.74099029 -1.05273438 38.14428711 C-1.75074842 41.81643731 -2.42306828 45.49269361 -3.09375 49.16992188 C-3.5349142 51.5159159 -3.97757091 53.86162986 -4.421875 56.20703125 C-4.61996765 57.30086624 -4.8180603 58.39470123 -5.02215576 59.52168274 C-6.13445987 65.22572948 -7.19856139 69.53010405 -11 74 C-14.10596537 75.2435538 -16.80472701 74.8752728 -20 74 C-23.08896258 72.05087601 -25.48774293 69.63431005 -28 67 C-29.33305615 65.68721847 -30.66637383 64.37470245 -32 63.0625 C-33.00260713 62.04422713 -34.00363813 61.02438455 -35 60 C-38.7902902 61.50933256 -40.58677989 63.68201518 -43.0625 66.875 C-46.44587873 71.12791264 -49.92926701 75.20377134 -53.625 79.1875 C-54.09695801 79.69732422 -54.56891602 80.20714844 -55.05517578 80.73242188 C-55.51520996 81.22935547 -55.97524414 81.72628906 -56.44921875 82.23828125 C-60.65098409 86.78751264 -64.69442513 91.46367084 -68.70703125 96.1796875 C-74.53568993 103.0226051 -80.45889741 109.74535907 -86.55859375 116.34765625 C-90.25754991 120.36620222 -93.83136535 124.48520187 -97.39794922 128.62109375 C-103.78697693 136.02750793 -110.20937736 143.38468807 -116.8125 150.6015625 C-120.91465603 155.09928357 -124.88975383 159.70296896 -128.8515625 164.32421875 C-129.62282471 165.2224939 -129.62282471 165.2224939 -130.40966797 166.13891602 C-131.46875935 167.37831632 -132.52250153 168.62230792 -133.57080078 169.87084961 C-135.73555572 172.43784638 -137.83992625 174.85442958 -140.328125 177.1171875 C-143.7769381 180.27158972 -144.93074347 181.93546005 -145.2421875 186.72265625 C-145.20959032 188.83973105 -145.12445931 190.94868372 -145.0222168 193.06347656 C-144.73745265 200.39679851 -146.78111459 204.46860144 -151.609375 209.765625 C-155.46798015 213.41182987 -159.72657912 216.07151735 -165 217 C-166.91770237 216.77966824 -168.83432016 216.54977456 -170.75 216.3125 C-175.19058647 216.19534885 -176.60417228 216.65698349 -180.015625 219.61328125 C-182.68742784 222.61316191 -185.10357702 225.80266051 -187.5 229.02441406 C-189.86251853 232.13598632 -192.43256515 235.05737288 -195 238 C-196.00244206 239.16699048 -197.00374287 240.33496225 -198.00390625 241.50390625 C-198.49906738 242.08156738 -198.99422852 242.65922852 -199.50439453 243.25439453 C-200.99193779 244.99059014 -202.47851508 246.72760829 -203.96484375 248.46484375 C-210.72650405 256.36549733 -217.52425522 264.23402535 -224.34130859 272.08691406 C-226.02812335 274.03243664 -227.71174018 275.98068401 -229.39453125 277.9296875 C-234.13278472 283.41410102 -238.87173689 288.88899211 -243.75 294.25 C-246.73863253 297.54292966 -249.58383605 300.91316769 -252.375 304.375 C-256.05636689 308.92860712 -259.92774473 313.23582516 -263.91357422 317.51904297 C-266.90412641 320.75176204 -269.73771685 324.06687666 -272.5 327.5 C-275.69931722 331.47629426 -279.02584945 335.26668298 -282.5 339 C-286.7895776 343.61001639 -290.80410897 348.37783236 -294.75390625 353.28515625 C-297.0883059 356.10673495 -299.51990598 358.80590712 -302 361.5 C-305.29331699 365.07792463 -308.44651321 368.71539666 -311.5 372.5 C-314.55348679 376.28460334 -317.70668301 379.92207537 -321 383.5 C-325.14527049 388.00516994 -329.04342676 392.66000332 -332.8984375 397.4140625 C-334.84974405 399.81511257 -336.81092591 402.20319777 -338.8125 404.5625 C-339.33457031 405.18253906 -339.85664063 405.80257813 -340.39453125 406.44140625 C-343.43711195 409.39515248 -345.29421731 409.95008066 -349.58984375 410.25390625 C-356.12199122 409.21487284 -360.24448523 403.51441073 -364.5625 398.9375 C-365.9227832 397.54241211 -365.9227832 397.54241211 -367.31054688 396.11914062 C-371.71400908 391.57517636 -375.97657642 386.93633804 -380.11987305 382.15551758 C-398.64509594 360.76885268 -398.64509594 360.76885268 -424.40136719 350.62744141 C-438.87561128 347.13262674 -452.23211238 337.78578575 -464 329 C-464.91136719 328.33097656 -465.82273437 327.66195313 -466.76171875 326.97265625 C-468.5218476 325.66715056 -470.26435909 324.33788987 -472 323 C-478.14588931 329.58241976 -484.08313167 336.23679883 -489.73046875 343.2578125 C-492.96330753 347.16392751 -496.38707675 350.87273828 -499.8359375 354.58984375 C-500.55007813 355.38519531 -501.26421875 356.18054688 -502 357 C-502.59167969 357.60457031 -503.18335938 358.20914062 -503.79296875 358.83203125 C-505.59106249 362.0616171 -505.14249622 365.17720877 -504.9375 368.75 C-504.7401366 376.29046772 -505.41876967 381.14996062 -510.61328125 386.734375 C-514.15881011 390.03619788 -517.23893119 391.80827948 -522 393 C-524.27481084 392.86932505 -526.54678117 392.67907496 -528.8125 392.4375 C-533.12600464 392.36953512 -535.19943027 392.35496264 -538.59375 395.08984375 C-540.88829983 397.97015014 -542.93900891 400.94926743 -545 404 C-546.46960908 405.693525 -547.96940088 407.36138958 -549.5 409 C-554.76981486 414.78574079 -559.67396049 420.85486121 -564.5703125 426.95703125 C-569.22444659 432.68412439 -569.22444659 432.68412439 -573.0859375 433.37109375 C-577.26823838 433.4924233 -579.44544699 433.35083966 -583.0625 431.0625 C-585.2877719 427.54513473 -585.8662027 425.47886939 -585.58984375 421.3671875 C-584.41112949 416.63671836 -581.20327443 413.54572976 -578 410 C-577.01798948 408.86573715 -576.03903625 407.72882305 -575.0625 406.58984375 C-572.86454016 404.03115517 -570.65622971 401.48210679 -568.4375 398.94140625 C-565.04697227 395.05755288 -561.67392873 391.15905699 -558.3125 387.25 C-557.80759033 386.66581299 -557.30268066 386.08162598 -556.7824707 385.47973633 C-552.48661729 380.48034731 -550.82358304 377.93759517 -550.6875 371.3125 C-550.17046209 362.80328284 -547.71865092 358.33070085 -541.5625 352.625 C-535.12266147 347.55035208 -528.90155094 347.74692541 -521 348 C-520.76410156 347.44441406 -520.52820313 346.88882812 -520.28515625 346.31640625 C-518.6872248 343.43624409 -516.694995 341.33630924 -514.4375 338.9375 C-511.02391359 335.26749396 -507.76044817 331.54001115 -504.625 327.625 C-500.62612684 322.64432465 -496.34819249 317.99050781 -491.89697266 313.41455078 C-489.94927067 311.36732651 -488.2256813 309.44634746 -486.9453125 306.9140625 C-487.0300912 303.94680788 -488.51447505 302.58291072 -490.375 300.3125 C-507.70133397 277.50353238 -515.43763762 248.52845111 -515.3125 220.1875 C-515.31067719 219.52980621 -515.30885437 218.87211243 -515.30697632 218.19448853 C-515.25992223 208.09134833 -514.66399076 198.78217406 -512 189 C-511.82307617 188.31196289 -511.64615234 187.62392578 -511.46386719 186.91503906 C-508.93153385 177.11372815 -505.6205642 168.03920143 -501 159 C-500.55011719 158.09121094 -500.10023438 157.18242187 -499.63671875 156.24609375 C-493.46447339 144.30149498 -485.27495466 133.68827706 -476 124 C-475.32839844 123.26523437 -474.65679687 122.53046875 -473.96484375 121.7734375 C-453.43510192 100.05412184 -421.11257157 84.14685903 -391.10839844 82.87768555 C-376.80249988 82.52940279 -362.92353878 82.49457735 -349 86 C-348.29343262 86.17692383 -347.58686523 86.35384766 -346.85888672 86.53613281 C-327.32278851 91.542285 -308.19379048 100.59829763 -293 114 C-292.19433594 114.68578125 -291.38867188 115.3715625 -290.55859375 116.078125 C-265.05474415 138.269268 -246.66081355 170.84296433 -244 205 C-243.80691042 210.10452523 -243.75500643 215.20506176 -243.75 220.3125 C-243.74899292 221.02353882 -243.74798584 221.73457764 -243.74694824 222.46716309 C-243.7621142 238.31558909 -245.1526561 253.12934369 -251 268 C-250.67 268.33 -250.34 268.66 -250 269 C-249.16597656 268.03320312 -248.33195312 267.06640625 -247.47265625 266.0703125 C-237.25150004 254.24010129 -237.25150004 254.24010129 -232.25 248.75 C-228.42168168 244.53046667 -224.83265413 240.14730858 -221.25 235.71875 C-219.06498431 233.07852271 -216.80828609 230.5327028 -214.5 228 C-210.53994948 223.65360308 -206.7949365 219.1742517 -203.15234375 214.55859375 C-201 212 -201 212 -198.87890625 210.16015625 C-196.13420065 207.72471325 -194.20953804 205.81254901 -193.77246094 202.03173828 C-193.68675938 198.90227118 -193.74803774 195.81840173 -193.99389648 192.69702148 C-194.45462125 185.78615003 -192.50432641 181.23046672 -188.2890625 175.79296875 C-187.73992187 175.26316406 -187.19078125 174.73335937 -186.625 174.1875 C-186.08101562 173.64480469 -185.53703125 173.10210937 -184.9765625 172.54296875 C-179.70847082 168.43052564 -175.96468873 167.84306854 -169.375 168.1875 C-164.67571128 168.13261937 -161.2529957 167.6980178 -157.78125 164.35546875 C-155.16758927 161.40358484 -152.86444044 158.223397 -150.55224609 155.03320312 C-147.85238289 151.49679847 -144.76135228 148.3350895 -141.6875 145.125 C-140.49862094 143.86458061 -139.31106534 142.60291123 -138.125 141.33984375 C-137.57972656 140.75960449 -137.03445313 140.17936523 -136.47265625 139.58154297 C-134.12960265 137.06524635 -131.87037001 134.48161449 -129.62890625 131.875 C-127.66334911 129.61248819 -125.64326691 127.40309317 -123.625 125.1875 C-120.55253227 121.78916448 -117.61557378 118.32409477 -114.75 114.75 C-110.09341188 108.99053574 -105.07165823 103.62051301 -100.0078125 98.22265625 C-97.1552359 95.17938059 -94.3907379 92.07055866 -91.6640625 88.9140625 C-88.16707067 84.891701 -84.57140635 80.95620434 -81 77 C-78.74891999 74.49966546 -76.49870784 71.99856202 -74.25 69.49609375 C-72.75517311 67.83777017 -71.2551942 66.18407559 -69.75 64.53515625 C-65.7277005 60.1148167 -61.78383775 55.63717401 -57.9375 51.0625 C-57.18339844 50.16660156 -56.42929687 49.27070313 -55.65234375 48.34765625 C-53.71221959 46.06959406 -53.71221959 46.06959406 -54 43 C-55.47273908 41.22053611 -55.47273908 41.22053611 -57.46484375 39.49609375 C-58.18220703 38.83802734 -58.89957031 38.17996094 -59.63867188 37.50195312 C-60.39728516 36.82068359 -61.15589844 36.13941406 -61.9375 35.4375 C-63.42799787 34.08446906 -64.91638762 32.72911105 -66.40234375 31.37109375 C-67.39995728 30.4728186 -67.39995728 30.4728186 -68.41772461 29.55639648 C-70.67023269 27.3407293 -70.97864885 26.25087598 -71.25 23.0625 C-71 20 -71 20 -69.76220703 18.40722656 C-67.7220745 16.77806004 -66.05573361 16.16069271 -63.5546875 15.421875 C-62.65459961 15.15149414 -61.75451172 14.88111328 -60.82714844 14.60253906 C-59.85293945 14.32120117 -58.87873047 14.03986328 -57.875 13.75 C-56.86469727 13.45061523 -55.85439453 13.15123047 -54.81347656 12.84277344 C-44.1945178 9.71609814 -33.53590662 6.72009888 -22.86132812 3.78930664 C-20.90469217 3.24956227 -18.9503433 2.70147613 -16.99804688 2.14624023 C-16.03447266 1.87497314 -15.07089844 1.60370605 -14.078125 1.32421875 C-12.79276855 0.95816528 -12.79276855 0.95816528 -11.48144531 0.5847168 C-7.7684709 -0.29019207 -3.73337186 -0.98778797 0 0 Z M-412 112 C-412.68739258 112.21430664 -413.37478516 112.42861328 -414.08300781 112.64941406 C-427.70141868 117.03976989 -440.10988479 123.65711428 -451 133 C-451.82113281 133.69996094 -452.64226562 134.39992188 -453.48828125 135.12109375 C-476.31687876 155.10910704 -489.14945578 180.9001856 -492 211 C-494.10602256 243.01966527 -484.46797653 274.0646304 -463.28125 298.4140625 C-443.89499033 319.90505107 -418.12385767 333.9742478 -389 336 C-376.41640285 336.57577168 -364.15367309 336.6516138 -352 333 C-351.31131836 332.80132324 -350.62263672 332.60264648 -349.91308594 332.39794922 C-319.11258784 323.40829794 -295.37183834 304.00930393 -279.71484375 275.98828125 C-264.58760282 247.75260851 -262.24984667 215.92136778 -271.3203125 185.3828125 C-280.167837 157.69533784 -300.18392352 134.50554508 -325.69238281 120.83984375 C-352.08152774 107.25130706 -383.38426893 103.01742221 -412 112 Z " fill="#00BABE" transform="translate(807,194)"/>
<path d="M0 0 C1.8871875 0.00773437 1.8871875 0.00773437 3.8125 0.015625 C5.070625 0.01046875 6.32875 0.0053125 7.625 0 C10.8125 0.265625 10.8125 0.265625 12.8125 2.265625 C13.03955078 4.23681641 13.03955078 4.23681641 13.0078125 6.6171875 C13.00136719 7.46796875 12.99492187 8.31875 12.98828125 9.1953125 C12.97152344 10.08476562 12.95476562 10.97421875 12.9375 11.890625 C12.92847656 12.7878125 12.91945313 13.685 12.91015625 14.609375 C12.88655132 16.82823822 12.85067962 19.0469647 12.8125 21.265625 C16.7725 21.265625 20.7325 21.265625 24.8125 21.265625 C24.80089844 19.83347656 24.78929687 18.40132813 24.77734375 16.92578125 C24.76796745 15.05989713 24.75886708 13.19401161 24.75 11.328125 C24.74162109 10.38259766 24.73324219 9.43707031 24.72460938 8.46289062 C24.72138672 7.56376953 24.71816406 6.66464844 24.71484375 5.73828125 C24.70960693 4.90562744 24.70437012 4.07297363 24.69897461 3.21508789 C24.8125 1.265625 24.8125 1.265625 25.8125 0.265625 C28.4898138 0.16581286 31.13554175 0.12682625 33.8125 0.140625 C34.56273437 0.13675781 35.31296875 0.13289063 36.0859375 0.12890625 C41.68588947 0.13901447 41.68588947 0.13901447 42.8125 1.265625 C42.89935603 2.82735245 42.91952219 4.39291844 42.91015625 5.95703125 C42.90532227 7.37338867 42.90532227 7.37338867 42.90039062 8.81835938 C42.88782227 10.30819336 42.88782227 10.30819336 42.875 11.828125 C42.87048828 12.82521484 42.86597656 13.82230469 42.86132812 14.84960938 C42.84950007 17.32167349 42.83301849 19.79362018 42.8125 22.265625 C43.83988281 22.47316406 44.86726563 22.68070312 45.92578125 22.89453125 C57.54051967 25.40688938 67.4484657 28.97016185 74.59375 39.078125 C77.99954749 45.19109486 79.32270979 49.75458534 79.1875 56.703125 C79.17734863 57.4544873 79.16719727 58.20584961 79.15673828 58.97998047 C78.85203677 69.82877152 74.31541676 75.82969857 66.8125 83.265625 C67.66521484 83.6678125 67.66521484 83.6678125 68.53515625 84.078125 C77.90248088 88.83215954 83.35086297 95.36459867 86.8125 105.265625 C89.68893205 114.66196969 87.94471583 124.72831091 83.78125 133.41796875 C77.94046803 143.6985343 68.52457582 149.07098857 57.39453125 152.23828125 C52.42933356 153.44451572 47.92563845 154.33192439 42.8125 154.265625 C42.81773682 154.89654053 42.82297363 155.52745605 42.82836914 156.17749023 C42.84907826 159.01935847 42.86214066 161.86121088 42.875 164.703125 C42.88337891 165.69634766 42.89175781 166.68957031 42.90039062 167.71289062 C42.90361328 168.65712891 42.90683594 169.60136719 42.91015625 170.57421875 C42.91539307 171.44876709 42.92062988 172.32331543 42.92602539 173.22436523 C42.8125 175.265625 42.8125 175.265625 41.8125 176.265625 C39.1351862 176.36543714 36.48945825 176.40442375 33.8125 176.390625 C32.68714844 176.39642578 32.68714844 176.39642578 31.5390625 176.40234375 C25.93911053 176.39223553 25.93911053 176.39223553 24.8125 175.265625 C24.72564397 173.70389755 24.70547781 172.13833156 24.71484375 170.57421875 C24.71806641 169.62998047 24.72128906 168.68574219 24.72460938 167.71289062 C24.73717773 166.22305664 24.73717773 166.22305664 24.75 164.703125 C24.75451172 163.70603516 24.75902344 162.70894531 24.76367188 161.68164062 C24.77549977 159.20961013 24.79343585 156.73761028 24.8125 154.265625 C20.8525 154.265625 16.8925 154.265625 12.8125 154.265625 C12.82410156 155.76996094 12.83570313 157.27429688 12.84765625 158.82421875 C12.85703249 160.78385293 12.86613287 162.74348845 12.875 164.703125 C12.88337891 165.69634766 12.89175781 166.68957031 12.90039062 167.71289062 C12.90361328 168.65712891 12.90683594 169.60136719 12.91015625 170.57421875 C12.91539307 171.44876709 12.92062988 172.32331543 12.92602539 173.22436523 C12.8125 175.265625 12.8125 175.265625 11.8125 176.265625 C9.1351862 176.36543714 6.48945825 176.40442375 3.8125 176.390625 C3.06226563 176.39449219 2.31203125 176.39835938 1.5390625 176.40234375 C-4.06088947 176.39223553 -4.06088947 176.39223553 -5.1875 175.265625 C-5.27435603 173.70389755 -5.29452219 172.13833156 -5.28515625 170.57421875 C-5.28193359 169.62998047 -5.27871094 168.68574219 -5.27539062 167.71289062 C-5.26701172 166.71966797 -5.25863281 165.72644531 -5.25 164.703125 C-5.24548828 163.70603516 -5.24097656 162.70894531 -5.23632812 161.68164062 C-5.22450007 159.20957651 -5.20801849 156.73762982 -5.1875 154.265625 C-6.06075928 154.27086182 -6.93401855 154.27609863 -7.83374023 154.28149414 C-11.06339273 154.29850251 -14.29302245 154.31105869 -17.52270508 154.32055664 C-18.92245228 154.3255958 -20.3221942 154.33242716 -21.72192383 154.34106445 C-23.72995777 154.3531482 -25.73802957 154.35832307 -27.74609375 154.36328125 C-29.56065063 154.37113647 -29.56065063 154.37113647 -31.41186523 154.37915039 C-34.1875 154.265625 -34.1875 154.265625 -35.1875 153.265625 C-35.28610131 151.86213765 -35.31828937 150.45382023 -35.3203125 149.046875 C-35.32160156 148.19738281 -35.32289063 147.34789062 -35.32421875 146.47265625 C-35.32035156 145.57933594 -35.31648438 144.68601562 -35.3125 143.765625 C-35.31636719 142.87230469 -35.32023437 141.97898437 -35.32421875 141.05859375 C-35.32292969 140.20910156 -35.32164062 139.35960937 -35.3203125 138.484375 C-35.31918457 137.69998047 -35.31805664 136.91558594 -35.31689453 136.10742188 C-35.1875 134.265625 -35.1875 134.265625 -34.1875 133.265625 C-28.2475 132.935625 -22.3075 132.605625 -16.1875 132.265625 C-16.5175 103.225625 -16.8475 74.185625 -17.1875 44.265625 C-22.7975 43.935625 -28.4075 43.605625 -34.1875 43.265625 C-36.4272148 41.0259102 -35.37281833 35.83665012 -35.375 32.828125 C-35.38724609 31.94318359 -35.39949219 31.05824219 -35.41210938 30.14648438 C-35.41404297 29.30021484 -35.41597656 28.45394531 -35.41796875 27.58203125 C-35.42207764 26.80287354 -35.42618652 26.02371582 -35.43041992 25.22094727 C-35.1875 23.265625 -35.1875 23.265625 -33.1875 21.265625 C-30.39013672 21.03857422 -30.39013672 21.03857422 -26.8671875 21.0703125 C-24.98193359 21.07998047 -24.98193359 21.07998047 -23.05859375 21.08984375 C-21.08052734 21.11498047 -21.08052734 21.11498047 -19.0625 21.140625 C-17.72266279 21.15065517 -16.38281848 21.15978096 -15.04296875 21.16796875 C-11.75763427 21.19160425 -8.47265535 21.22455266 -5.1875 21.265625 C-5.19797363 20.70053223 -5.20844727 20.13543945 -5.21923828 19.55322266 C-5.26074788 16.99906847 -5.2868096 14.44498518 -5.3125 11.890625 C-5.32925781 11.00117188 -5.34601563 10.11171875 -5.36328125 9.1953125 C-5.36972656 8.34453125 -5.37617188 7.49375 -5.3828125 6.6171875 C-5.39328613 5.83166504 -5.40375977 5.04614258 -5.41455078 4.23681641 C-4.99445041 0.58962242 -3.43727723 0.28643977 0 0 Z " fill="#00BABE" transform="translate(403.1875,327.734375)"/>
<path d="M0 0 C1.56694366 1.21816406 3.11006897 2.46772854 4.625 3.75 C5.33269531 4.32363281 6.04039062 4.89726563 6.76953125 5.48828125 C16.71851702 14.37198365 21.87063095 28.142733 22.80078125 41.22167969 C23.7183192 59.39548494 21.56298394 76.63300935 9.4375 91 C-0.38462411 101.32374824 -12.48987865 105.78065131 -26.52954102 106.22265625 C-40.13637962 106.35060234 -50.39892858 104.09181428 -61.375 95.75 C-62.40625 95.028125 -63.4375 94.30625 -64.5 93.5625 C-74.24381251 85.14492863 -79.31723791 71.21375091 -80.375 58.75 C-81.46787907 41.23009968 -80.83839167 24.9610603 -69.375 10.75 C-68.93671875 10.14027344 -68.4984375 9.53054688 -68.046875 8.90234375 C-52.99765387 -10.77408044 -19.92636258 -13.17370718 0 0 Z " fill="#00BABE" transform="translate(726.375,692.25)"/>
<path d="M0 0 C60.07036424 0 60.07036424 0 70.8671875 10.484375 C79.1458654 20.24896945 79.66586756 30.572555 79.18798828 42.78369141 C78.82065429 47.114416 77.36373971 50.4175848 75 54 C74.401875 55.051875 73.80375 56.10375 73.1875 57.1875 C69.53675068 61.88132055 65.4059235 65.48671978 60 68 C61.61818195 73.9596457 64.66380413 78.95830318 67.75 84.25 C68.26304687 85.14074219 68.77609375 86.03148437 69.3046875 86.94921875 C71.40295099 90.58163971 73.50161554 94.2042743 75.72851562 97.75976562 C76.27701172 98.63826172 76.82550781 99.51675781 77.390625 100.421875 C77.89110352 101.2065918 78.39158203 101.99130859 78.90722656 102.79980469 C80 105 80 105 80 109 C76.29334204 109.2917568 72.58962752 109.46835908 68.875 109.625 C67.82828125 109.70878906 66.7815625 109.79257812 65.703125 109.87890625 C62.54524222 109.97883925 60.03498895 109.89089971 57 109 C54.03769741 106.13268343 52.63819569 102.74140467 51 99 C49.00119419 94.90535317 46.96841755 90.8286598 44.90771484 86.76489258 C44.29892135 85.53928222 43.70819514 84.30454214 43.13525391 83.06176758 C41.19571214 78.88458752 39.27705277 75.26082331 36 72 C31.2348696 70.64872313 26.91400814 70.5828787 22 71 C22.00785522 72.67340454 22.00785522 72.67340454 22.01586914 74.38061523 C22.03391775 78.50479333 22.04543149 82.62896791 22.05493164 86.75317383 C22.05997218 88.54094021 22.06680454 90.32870245 22.07543945 92.11645508 C22.0875173 94.68051168 22.09323094 97.24451397 22.09765625 99.80859375 C22.10281754 100.6127623 22.10797882 101.41693085 22.11329651 102.24546814 C22.11349215 104.16401715 22.06201983 106.08245368 22 108 C21.67 108.33 21.34 108.66 21 109 C14.07 109 7.14 109 0 109 C0 73.03 0 37.06 0 0 Z " fill="#00BABE" transform="translate(273,687)"/>
<path d="M0 0 C4.00774051 0.17929454 7.06355259 0.40073159 10.2175293 3.01953125 C13.90361734 7.7084033 16.32027788 13.13089996 18.83862305 18.50732422 C21.2121325 23.29790856 24.15620932 27.69374168 27.08764648 32.15673828 C28.25820182 33.97929836 29.42612943 35.80354855 30.59155273 37.62939453 C31.18597168 38.55896973 31.78039062 39.48854492 32.39282227 40.44628906 C36.46274795 46.84731615 40.46654629 53.28997518 44.47753906 59.72802734 C45.07590576 60.68805664 45.67427246 61.64808594 46.29077148 62.63720703 C46.81960938 63.48694092 47.34844727 64.3366748 47.89331055 65.2121582 C48.99421441 66.96057249 50.12905724 68.68760441 51.27514648 70.40673828 C51.28545395 69.55704971 51.29576141 68.70736115 51.30638123 67.83192444 C51.40418337 59.84129887 51.50667266 51.85075035 51.61448574 43.86025333 C51.66975231 39.75183411 51.72317813 35.64340782 51.77246094 31.53491211 C51.82004961 27.57320702 51.87239015 23.6115911 51.92808723 19.64999199 C51.94853579 18.13528082 51.96724466 16.62054517 51.9842205 15.10579109 C52.00820948 12.99125402 52.03827099 10.87688694 52.06982422 8.76245117 C52.0853685 7.55665909 52.10091278 6.350867 52.1169281 5.10853577 C52.27514648 2.40673828 52.27514648 2.40673828 53.27514648 1.40673828 C54.67863384 1.30813697 56.08695126 1.27594892 57.49389648 1.27392578 C58.76813477 1.27199219 58.76813477 1.27199219 60.06811523 1.27001953 C60.96143555 1.27388672 61.85475586 1.27775391 62.77514648 1.28173828 C63.6684668 1.27787109 64.56178711 1.27400391 65.48217773 1.27001953 C66.33166992 1.27130859 67.18116211 1.27259766 68.05639648 1.27392578 C68.84079102 1.27505371 69.62518555 1.27618164 70.43334961 1.27734375 C72.27514648 1.40673828 72.27514648 1.40673828 73.27514648 2.40673828 C73.37277171 3.80852158 73.40146306 5.21518281 73.40213013 6.62036133 C73.40635986 7.98334854 73.40635986 7.98334854 73.41067505 9.37387085 C73.4076387 10.88094101 73.4076387 10.88094101 73.40454102 12.41845703 C73.40716949 13.99634506 73.40716949 13.99634506 73.40985107 15.60610962 C73.41427192 19.10216902 73.41133078 22.59817832 73.40795898 26.09423828 C73.40863196 28.51180023 73.40960192 30.92936211 73.41085815 33.34692383 C73.41233544 38.42123049 73.41017958 43.49551959 73.40551758 48.56982422 C73.39982028 55.09058531 73.40309912 61.61130524 73.40909004 68.13206482 C73.41269482 73.12642734 73.41155745 78.12078002 73.40896225 83.11514282 C73.40829275 85.5202332 73.4091222 87.92532446 73.4114418 90.33041382 C73.41396696 93.68530664 73.41012966 97.04013178 73.40454102 100.39501953 C73.40656525 101.39973297 73.40858948 102.40444641 73.41067505 103.43960571 C73.40785522 104.34826385 73.4050354 105.256922 73.40213013 106.19311523 C73.40156459 107.38442802 73.40156459 107.38442802 73.40098763 108.59980774 C73.27514648 110.40673828 73.27514648 110.40673828 72.27514648 111.40673828 C65.8199395 112.92982667 58.62181884 113.5525 52.27514648 111.40673828 C47.15864821 107.25728022 44.49250237 100.87163938 41.63745117 95.07470703 C39.50525267 90.89896056 36.9534211 87.02126069 34.40014648 83.09423828 C33.40982044 81.53042716 32.4215772 79.96529533 31.43530273 78.39892578 C27.33279632 71.91166619 23.20872871 65.43811092 19.08227539 58.96606445 C18.52846191 58.09699463 17.97464844 57.2279248 17.40405273 56.33251953 C16.92009033 55.57366455 16.43612793 54.81480957 15.9375 54.03295898 C13.701496 50.5004733 11.49090776 46.95195632 9.27514648 43.40673828 C8.94514648 65.51673828 8.61514648 87.62673828 8.27514648 110.40673828 C1.01514648 110.40673828 -6.24485352 110.40673828 -13.72485352 110.40673828 C-13.74740172 96.34255827 -13.76576696 82.27839017 -13.77666569 68.21419621 C-13.78189522 61.68437595 -13.78899413 55.15456865 -13.80029297 48.62475586 C-13.81111936 42.32892669 -13.81712982 36.03311002 -13.81973076 29.73727226 C-13.82158546 27.32938884 -13.82520691 24.92150614 -13.83058357 22.51362801 C-13.83779071 19.15384542 -13.8388446 15.79411518 -13.83837891 12.43432617 C-13.84197418 11.42804169 -13.84556946 10.4217572 -13.84927368 9.38497925 C-13.84789902 8.47487595 -13.84652435 7.56477264 -13.84510803 6.62709045 C-13.84649072 5.43382944 -13.84649072 5.43382944 -13.84790134 4.21646214 C-13.4954283 -0.96752914 -3.89444352 0.12601687 0 0 Z " fill="#00B9BE" transform="translate(779.724853515625,685.59326171875)"/>
<path d="M0 0 C59.08142857 0 59.08142857 0 70.05859375 10.61328125 C78.34601009 20.80163414 79.8505005 31.33004401 79 44 C77.37651975 53.26919468 73.12365253 59.90519524 66 66 C56.01426844 72.74711592 45.09526439 73.30866244 33.375 73.125 C29.62125 73.08375 25.8675 73.0425 22 73 C22 84.88 22 96.76 22 109 C14.74 109 7.48 109 0 109 C0 73.03 0 37.06 0 0 Z " fill="#00BABE" transform="translate(466,687)"/>
<path d="M0 0 C2.87029869 1.79393668 4.49131638 2.98263276 6 6 C6.09633163 7.42833634 6.13096492 8.86106805 6.13422108 10.29264545 C6.13867892 11.19922691 6.14313676 12.10580836 6.14772969 13.03986198 C6.14754533 14.04227225 6.14736097 15.04468253 6.14717102 16.07746887 C6.15084771 17.13737351 6.1545244 18.19727814 6.1583125 19.2893011 C6.16938413 22.86450306 6.17319905 26.439676 6.17700195 30.01489258 C6.18326391 32.56861972 6.18991046 35.12234595 6.19691467 37.67607117 C6.21616727 45.35645255 6.22674618 53.03682884 6.23564246 60.7172282 C6.24002373 64.3322809 6.24539094 67.94733212 6.25063133 71.56238365 C6.26764412 83.57644376 6.28213907 95.59050294 6.28938007 107.60457325 C6.29129003 110.7231172 6.29321035 113.84166115 6.29516602 116.96020508 C6.29564976 117.73532236 6.2961335 118.51043965 6.2966319 119.30904534 C6.30493511 131.87004683 6.33027668 144.43095318 6.36274669 156.99191312 C6.39579655 169.88205396 6.41382693 182.77214641 6.41702431 195.66232985 C6.41919129 202.90212667 6.42796724 210.14178472 6.45348549 217.3815403 C6.47742783 224.18999953 6.48103125 230.9981655 6.47072411 237.80667305 C6.47022673 240.30888448 6.47660607 242.8111079 6.49028015 245.31328201 C6.5078749 248.72301833 6.50095351 252.13184456 6.48774719 255.5415802 C6.49871644 256.53729831 6.50968568 257.53301642 6.52098733 258.55890781 C6.4802092 262.90434332 6.4155666 265.32585156 4.0945158 269.09115124 C0.57894823 272.29508353 -2.11912675 272.39266001 -6.73828125 272.35546875 C-10.35701199 271.78672178 -11.88030223 269.84834388 -14 267 C-14.93348341 264.19954978 -15.12758315 262.5099618 -15.13422108 259.61554146 C-15.13867892 258.71393575 -15.14313676 257.81233004 -15.14772969 256.88340294 C-15.14754533 255.89168741 -15.14736097 254.89997187 -15.14717102 253.87820435 C-15.15084771 252.82561239 -15.1545244 251.77302044 -15.1583125 250.68853176 C-15.16936905 247.14407489 -15.17319649 243.59964733 -15.17700195 240.05517578 C-15.18326498 237.52100531 -15.18991164 234.98683577 -15.19691467 232.45266724 C-15.216154 224.83647868 -15.22674349 217.22029526 -15.23564246 209.6040886 C-15.24002541 206.01842589 -15.24539212 202.43276466 -15.25063133 198.84710312 C-15.26764127 186.92993794 -15.28213665 175.01277368 -15.28938007 163.09559822 C-15.29128999 160.00334802 -15.29321032 156.91109783 -15.29516602 153.81884766 C-15.29564976 153.0502771 -15.2961335 152.28170655 -15.2966319 151.48984598 C-15.30493679 139.03237212 -15.33028246 126.57499415 -15.36274669 114.11756219 C-15.39579652 101.33135082 -15.41382686 88.54518822 -15.41702431 75.7589339 C-15.4191911 68.5783963 -15.42796442 61.39799861 -15.45348549 54.21750259 C-15.47742759 47.46566295 -15.48103132 40.71411904 -15.47072411 33.96223068 C-15.47022675 31.48098158 -15.47660563 28.99972038 -15.49028015 26.51850891 C-15.5078758 23.13728747 -15.50095313 19.75698371 -15.48774719 16.37576294 C-15.49871644 15.38850885 -15.50968568 14.40125475 -15.52098733 13.38408387 C-15.48004184 9.05699989 -15.40921265 6.66273138 -13.0945158 2.91401482 C-9.13367848 -0.70548584 -5.17748863 -0.67065915 0 0 Z " fill="#00BABE" transform="translate(760,355)"/>
<path d="M0 0 C6.93 0 13.86 0 21 0 C21.33 14.52 21.66 29.04 22 44 C24.64 40.7 27.28 37.4 30 34 C33.2734375 29.98046875 33.2734375 29.98046875 34.81860352 28.09106445 C40.28775667 21.40196843 45.64544311 14.64451909 50.87890625 7.76953125 C51.57886719 6.85558594 52.27882812 5.94164062 53 5 C53.48855469 4.0615625 53.97710937 3.123125 54.48046875 2.15625 C58.84444486 -1.57850165 64.23414987 -0.51190504 69.75 -0.3125 C71.51150391 -0.27866211 71.51150391 -0.27866211 73.30859375 -0.24414062 C76.20701637 -0.1852296 79.10286427 -0.10301631 82 0 C81.12770319 4.28029997 78.88831918 7.04079262 76.1875 10.375 C75.70047607 10.98569336 75.21345215 11.59638672 74.71166992 12.22558594 C70.67955857 17.24532361 66.50514716 22.13884249 62.29199219 27.00683594 C56.9691651 33.16146397 51.85910309 39.47196484 47 46 C48.34464188 48.81841019 49.85055736 51.37575912 51.6171875 53.94921875 C52.13531006 54.70581787 52.65343262 55.46241699 53.18725586 56.24194336 C53.74421143 57.04897705 54.30116699 57.85601074 54.875 58.6875 C55.45580322 59.53256104 56.03660645 60.37762207 56.63500977 61.24829102 C60.36871667 66.6686786 64.13817984 72.06294599 67.9375 77.4375 C68.65220459 78.45046143 68.65220459 78.45046143 69.38134766 79.48388672 C72.1897607 83.45882839 75.01935764 87.41756661 77.86328125 91.3671875 C79.15901185 93.18217911 80.45458733 94.99728146 81.75 96.8125 C82.37124756 97.66706787 82.99249512 98.52163574 83.63256836 99.40209961 C84.20241455 100.20397705 84.77226074 101.00585449 85.359375 101.83203125 C86.12459473 102.89514526 86.12459473 102.89514526 86.90527344 103.97973633 C88 106 88 106 88 110 C67.42111772 112.81441172 67.42111772 112.81441172 60.78173828 108.58789062 C56.81524507 104.5924918 54.21655193 99.71837129 51.5703125 94.79101562 C48.69055482 89.67264034 45.23129766 84.93812136 41.875 80.125 C40.08204882 77.48268498 38.2961224 74.83574982 36.51123047 72.18798828 C35.48775325 70.70617845 34.41666904 69.25634126 33.30517578 67.83935547 C32 66 32 66 32 64 C31.278125 64.70125 30.55625 65.4025 29.8125 66.125 C29.20341797 66.71667969 29.20341797 66.71667969 28.58203125 67.3203125 C28.05996094 67.87460937 27.53789062 68.42890625 27 69 C26.15695313 69.85916016 25.31390625 70.71832031 24.4453125 71.60351562 C21.51834567 75.14640731 21.26826272 78.54579383 21.29296875 83.0234375 C21.27784744 83.76961334 21.26272614 84.51578918 21.24714661 85.28457642 C21.20444438 87.64836252 21.1954495 90.01086748 21.1875 92.375 C21.16434178 93.98571073 21.13897368 95.59639129 21.11132812 97.20703125 C21.0486497 101.13813319 21.01617794 105.06844285 21 109 C17.52085059 109.02887814 14.04173169 109.04675687 10.5625 109.0625 C9.07266602 109.07506836 9.07266602 109.07506836 7.55273438 109.08789062 C6.60849609 109.09111328 5.66425781 109.09433594 4.69140625 109.09765625 C3.81685791 109.10289307 2.94230957 109.10812988 2.04125977 109.11352539 C0 109 0 109 -1 108 C-1.0975858 106.61089367 -1.12631639 105.21687051 -1.12698364 103.82434082 C-1.12980347 102.92409683 -1.13262329 102.02385284 -1.13552856 101.09632874 C-1.13350433 100.10096603 -1.1314801 99.10560333 -1.12939453 98.08007812 C-1.13114685 97.03790634 -1.13289917 95.99573456 -1.13470459 94.92198181 C-1.13912538 91.45838787 -1.13618431 87.99484451 -1.1328125 84.53125 C-1.13348547 82.1361083 -1.13445544 79.74096666 -1.13571167 77.3458252 C-1.13718895 72.31859692 -1.13503311 67.29138638 -1.13037109 62.26416016 C-1.1246738 55.80393309 -1.12795264 49.34374757 -1.13394356 42.88352203 C-1.13754835 37.93548263 -1.13641096 32.98745315 -1.13381577 28.03941345 C-1.13314627 25.65665177 -1.1339757 23.27388919 -1.13629532 20.89112854 C-1.13882051 17.56736851 -1.13498313 14.24367679 -1.12939453 10.91992188 C-1.13141876 9.92455917 -1.13344299 8.92919647 -1.13552856 7.90367126 C-1.13270874 7.00342728 -1.12988892 6.10318329 -1.12698364 5.17565918 C-1.12660662 4.388825 -1.12622959 3.60199081 -1.12584114 2.79131317 C-1 1 -1 1 0 0 Z " fill="#00B9BE" transform="translate(171,687)"/>
<path d="M0 0 C7.92 0 15.84 0 24 0 C25.44375 2.908125 26.8875 5.81625 28.375 8.8125 C33.11423748 18.32337055 38.02051241 27.73946724 43.01367188 37.11914062 C44.03514156 39.06701252 45.02252171 41.02973616 46 43 C50.22621033 36.1914129 53.98200967 29.2596196 57.5 22.0625 C61.18070202 14.61103291 64.93530695 7.25053355 69 0 C76.59 0 84.18 0 92 0 C91.09965208 4.5017396 89.77806678 7.73126522 87.640625 11.6796875 C87.2995723 12.32126801 86.95851959 12.96284851 86.60713196 13.62387085 C85.49477296 15.71123307 84.37274545 17.79320867 83.25 19.875 C82.48013173 21.31333976 81.7105209 22.75181734 80.94116211 24.19042969 C74.85424084 35.5413987 68.58306516 46.78326581 62.15063477 57.94238281 C61.77092529 58.62139648 61.39121582 59.30041016 61 60 C60.65251709 60.61009415 60.30503418 61.22018829 59.94702148 61.84877014 C58.89799096 64.23172113 58.73174166 65.88440869 58.69702148 68.47729492 C58.68037949 69.35467819 58.66373749 70.23206146 58.64659119 71.1360321 C58.63817703 72.0746962 58.62976288 73.01336029 58.62109375 73.98046875 C58.60409927 74.94906326 58.5871048 75.91765778 58.56959534 76.91560364 C58.51649904 80.00616975 58.47616775 83.09672229 58.4375 86.1875 C58.39362212 89.2889225 58.34699422 92.39023921 58.29469299 95.49153137 C58.2626469 97.42120931 58.23578491 99.35098128 58.21446228 101.2808075 C58.20097244 102.14873428 58.1874826 103.01666107 58.17358398 103.91088867 C58.15931618 105.06194344 58.15931618 105.06194344 58.14476013 106.23625183 C58 108 58 108 57 109 C55.36527118 109.08700342 53.72685945 109.10701063 52.08984375 109.09765625 C51.10048828 109.09443359 50.11113281 109.09121094 49.09179688 109.08789062 C48.05087891 109.07951172 47.00996094 109.07113281 45.9375 109.0625 C44.89271484 109.05798828 43.84792969 109.05347656 42.77148438 109.04882812 C40.1809334 109.03699913 37.59049441 109.02051689 35 109 C35.04302246 107.8032666 35.08604492 106.6065332 35.13037109 105.37353516 C35.86996908 81.32749588 36.08826974 62.24157645 21.94287109 41.875 C18.65040475 37.00291107 15.89738548 31.83420933 13.0625 26.6875 C12.00021877 24.80959825 10.93523971 22.93321928 9.8671875 21.05859375 C7.45145435 16.80128099 5.04221932 12.54141539 2.6875 8.25 C2.15511719 7.28578125 1.62273437 6.3215625 1.07421875 5.328125 C0 3 0 3 0 0 Z " fill="#00BABE" transform="translate(358,687)"/>
<path d="M0 0 C27.39 0 54.78 0 83 0 C83 6.27 83 12.54 83 19 C82 20 82 20 79.22436523 20.11352539 C78.01466064 20.10828857 76.80495605 20.10305176 75.55859375 20.09765625 C74.25341797 20.09443359 72.94824219 20.09121094 71.60351562 20.08789062 C70.2148431 20.07953401 68.82617123 20.07106905 67.4375 20.0625 C66.04492344 20.05748666 64.65234519 20.05292347 63.25976562 20.04882812 C59.8398013 20.03699434 56.41992156 20.0205088 53 20 C53.00444122 21.09802948 53.00888245 22.19605896 53.01345825 23.32736206 C53.05393968 33.65746009 53.08395324 43.9875421 53.10362434 54.31770134 C53.11407729 59.62898938 53.12826397 64.94021356 53.15087891 70.25146484 C53.17255352 75.37372595 53.18455723 80.4959255 53.18975449 85.61822891 C53.19345994 87.5759287 53.20069541 89.53362498 53.21146011 91.49129868 C53.22590357 94.22588221 53.22798096 96.9602089 53.22705078 99.69482422 C53.23424133 100.51049866 53.24143188 101.3261731 53.24884033 102.16656494 C53.22810432 107.77189568 53.22810432 107.77189568 51 110 C49.06054688 110.25878906 49.06054688 110.25878906 46.71875 110.265625 C45.87699219 110.26820313 45.03523437 110.27078125 44.16796875 110.2734375 C42.84732422 110.26183594 42.84732422 110.26183594 41.5 110.25 C40.61957031 110.25773438 39.73914063 110.26546875 38.83203125 110.2734375 C37.99027344 110.27085937 37.14851562 110.26828125 36.28125 110.265625 C35.50845703 110.26336914 34.73566406 110.26111328 33.93945312 110.25878906 C32 110 32 110 30 108 C29.81186179 105.19850486 29.7482499 102.49663997 29.77294922 99.69482422 C29.77265717 98.83621796 29.77236511 97.97761169 29.77206421 97.09298706 C29.77346078 94.24678543 29.78903727 91.40084356 29.8046875 88.5546875 C29.80841647 86.58456566 29.81126399 84.61444198 29.81326294 82.64431763 C29.82090854 77.45256452 29.84056496 72.26092286 29.8626709 67.06921387 C29.8831094 61.7740225 29.89226038 56.47881317 29.90234375 51.18359375 C29.92380999 40.78901346 29.95795708 30.39451599 30 20 C28.74340576 20.00785522 28.74340576 20.00785522 27.46142578 20.01586914 C24.35661064 20.03290014 21.25181929 20.04544482 18.14697266 20.05493164 C16.14093449 20.06244036 14.13491798 20.0751447 12.12890625 20.08789062 C10.24365234 20.09272461 10.24365234 20.09272461 8.3203125 20.09765625 C6.57645264 20.10551147 6.57645264 20.10551147 4.79736328 20.11352539 C2 20 2 20 0 19 C0 12.73 0 6.46 0 0 Z " fill="#00B8BC" transform="translate(556,687)"/>
<path d="M0 0 C5.57894737 3.15789474 5.57894737 3.15789474 7 6 C7.10319429 8.24371348 7.13955342 10.49057616 7.14717102 12.73664856 C7.15084771 13.43720059 7.1545244 14.13775261 7.1583125 14.85953349 C7.1693692 17.21861884 7.17319652 19.57766017 7.17700195 21.93676758 C7.18326507 23.62351116 7.18991174 25.31025335 7.19691467 26.99699402 C7.21433769 31.58796917 7.22487983 36.1789339 7.2331202 40.76993394 C7.23826727 43.63674683 7.24434312 46.50355646 7.25063133 49.37036705 C7.26968647 58.33568678 7.28391729 67.30099826 7.2922433 76.26633435 C7.30201994 86.62334353 7.32834922 96.98013922 7.36874419 107.33707315 C7.39887849 115.33712727 7.41370959 123.33712011 7.41702431 131.33722991 C7.41937775 136.11784336 7.42837621 140.89822882 7.45348549 145.67878151 C7.47672451 150.17596581 7.48101635 154.67277135 7.47072411 159.17000008 C7.47022763 160.8207856 7.47658105 162.47158951 7.49028015 164.12231827 C7.50793794 166.37613503 7.50092454 168.62858345 7.48774719 170.88240051 C7.49013555 172.14358106 7.4925239 173.4047616 7.49498463 174.70415974 C6.91119286 178.59131967 5.73653885 180.23323568 3 183 C-0.20173254 184.60086627 -3.52577059 184.49917089 -7 184 C-9.8100346 182.20636089 -11.50940468 180.98119065 -13 178 C-13.10962511 175.75867932 -13.15279399 173.51403331 -13.1673584 171.27008057 C-13.17315178 170.57023411 -13.17894517 169.87038764 -13.18491411 169.14933372 C-13.20302319 166.79259641 -13.21385971 164.43588314 -13.22460938 162.07910156 C-13.23578138 160.39397969 -13.2472946 158.70886005 -13.25912476 157.02374268 C-13.29572011 151.47940169 -13.32090524 145.93503775 -13.34375 140.390625 C-13.34769587 139.44787814 -13.35164173 138.50513128 -13.35570717 137.53381634 C-13.39212549 128.64541835 -13.42357535 119.7570125 -13.44481659 110.86856461 C-13.47240222 99.49267424 -13.52318616 88.1174067 -13.60529089 76.74177575 C-13.66104508 68.74680949 -13.69004718 60.75201242 -13.6992898 52.75685859 C-13.70555307 47.97990791 -13.72372532 43.20368717 -13.77067566 38.42694855 C-13.81430854 33.93201685 -13.82484136 29.43821503 -13.81004715 24.9431076 C-13.81037612 23.29431923 -13.82267753 21.64548273 -13.84789658 19.99688721 C-14.02773108 7.58471092 -14.02773108 7.58471092 -11.49488831 3.67919159 C-7.90486377 0.45047988 -4.8995431 -1.04245598 0 0 Z " fill="#00BCC0" transform="translate(683,443)"/>
<path d="M0 0 C8.09214786 6.38670595 11.59649984 14.69790543 13.06640625 24.74609375 C14.01440181 36.93330592 13.40913652 48.53336231 6.06640625 58.74609375 C0.42000631 65.10753997 -5.4345889 68.083832 -13.8203125 69.09375 C-22.68964056 69.53664858 -28.93838947 67.03103949 -35.74609375 61.43359375 C-44.73619993 50.38860616 -46.6404435 39.77434269 -45.93359375 25.74609375 C-44.8146681 15.91654437 -41.22790344 7.57259736 -33.93359375 0.74609375 C-24.12226082 -6.27720314 -10.17850636 -6.60060716 0 0 Z " fill="#0A2435" transform="translate(713.93359375,709.25390625)"/>
<path d="M0 0 C4.99503071 0.4913145 6.31841769 1.88091769 9.8125 5.375 C10.99291166 7.73582333 10.94578161 9.16254272 10.95967102 11.79585266 C10.96682632 12.72534729 10.97398163 13.65484192 10.98135376 14.61250305 C10.98538712 16.14683235 10.98538712 16.14683235 10.98950195 17.7121582 C10.99607315 18.78706512 11.00264435 19.86197205 11.00941467 20.9694519 C11.02917846 24.538229 11.04081662 28.10696397 11.05078125 31.67578125 C11.05485678 32.89232077 11.0589323 34.10886028 11.06313133 35.36226463 C11.08400435 41.80002041 11.09830124 48.23775479 11.10766602 54.67553711 C11.11773046 61.33390624 11.15314426 67.99189563 11.19283772 74.65015888 C11.21894855 79.76220839 11.22735291 84.87417774 11.23094749 89.98628807 C11.23582708 92.44112592 11.24747977 94.89595986 11.26598549 97.3507328 C11.2902604 100.78397892 11.2894329 104.21635305 11.2824707 107.6496582 C11.29528076 108.66647171 11.30809082 109.68328522 11.32128906 110.73091125 C11.28864819 115.13996227 11.25116441 117.65912345 8.90812683 121.48283386 C5.6782272 124.39914827 3.39069052 124.57584402 -0.921875 124.8984375 C-4.53526637 124.06361949 -7.0108136 122.3079133 -9.1875 119.375 C-10.08481194 115.7621964 -9.9973278 112.22084611 -9.94799805 108.51367188 C-9.95690567 107.41881973 -9.96581329 106.32396759 -9.97499084 105.19593811 C-9.99629584 101.57793538 -9.97395241 97.96170932 -9.94921875 94.34375 C-9.95072087 91.82938454 -9.95415014 89.31501955 -9.95942688 86.80065918 C-9.96376054 81.53146367 -9.94752727 76.26272905 -9.91479492 70.99365234 C-9.87730144 64.90795921 -9.87908006 58.82323349 -9.9018361 52.73748922 C-9.92280896 46.87529117 -9.91540352 41.01345144 -9.89551735 35.15126038 C-9.88966473 32.66016785 -9.89097399 30.16904792 -9.89954185 27.67796326 C-9.9075273 24.19679728 -9.8833056 20.7173151 -9.8503418 17.23632812 C-9.85889191 16.20552628 -9.86744202 15.17472443 -9.87625122 14.11268616 C-9.76150517 7.09659883 -9.76150517 7.09659883 -6.70857239 3.25866699 C-5.46064156 2.32625183 -5.46064156 2.32625183 -4.1875 1.375 C-3.1875 0.375 -3.1875 0.375 0 0 Z " fill="#00BCC0" transform="translate(605.1875,502.625)"/>
<path d="M0 0 C4.74375 -0.103125 9.4875 -0.20625 14.375 -0.3125 C15.8501709 -0.35802002 17.3253418 -0.40354004 18.84521484 -0.45043945 C26.84815089 -0.53419739 33.47901671 -0.00838408 40 5 C43.29140692 9.20580388 44.69832559 13.64168668 44.3828125 18.984375 C43.37451822 24.29335306 41.25247876 27.9873576 37.0625 31.375 C31.82917962 34.15186387 28.1513085 35.24802915 22.16796875 35.1953125 C21.00289795 35.19031738 19.83782715 35.18532227 18.63745117 35.18017578 C16.43472534 35.15286377 16.43472534 35.15286377 14.1875 35.125 C9.505625 35.08375 4.82375 35.0425 0 35 C0 23.45 0 11.9 0 0 Z " fill="#0A2334" transform="translate(416,425)"/>
<path d="M0 0 C5.4759375 -0.0928125 5.4759375 -0.0928125 11.0625 -0.1875 C12.76805054 -0.22846802 12.76805054 -0.22846802 14.50805664 -0.27026367 C21.18494701 -0.32485275 26.52127559 -0.06533339 31.7421875 4.53515625 C36.02810348 10.31375331 36.60330256 13.87006071 36 21 C34.33725312 25.72570165 32.22088598 28.31398165 28 31 C21.97950378 33.21932017 16.42856434 33.23725174 10.0625 33.125 C6.741875 33.08375 3.42125 33.0425 0 33 C0 22.11 0 11.22 0 0 Z " fill="#0A2738" transform="translate(294,706)"/>
<path d="M0 0 C2.949375 -0.061875 5.89875 -0.12375 8.9375 -0.1875 C9.84749756 -0.21481201 10.75749512 -0.24212402 11.69506836 -0.27026367 C19.0747282 -0.34408408 25.87997897 0.82234001 31.5625 5.8125 C35.01450487 10.31260663 34.71367552 15.28332939 34.44140625 20.74609375 C33.86951967 24.96185942 33.1474007 27.08289691 30 30 C23.39813409 33.96147184 17.49617976 34.52134646 9.9375 34.25 C5.0184375 34.12625 5.0184375 34.12625 0 34 C0 22.78 0 11.56 0 0 Z " fill="#0A2536" transform="translate(488,706)"/>
<path d="M0 0 C3.444375 -0.061875 6.88875 -0.12375 10.4375 -0.1875 C11.50411865 -0.21481201 12.5707373 -0.24212402 13.66967773 -0.27026367 C20.20852889 -0.32652356 27.49696241 -0.1357114 32.62280273 4.45263672 C36.43781901 8.91216824 37.35994965 11.91347394 37.27734375 17.61328125 C36.80880082 21.64539012 35.46763093 23.7531172 33 27 C27.90822155 30.18236153 23.50259899 31.13056999 17.578125 31.09765625 C16.65418945 31.09515869 15.73025391 31.09266113 14.77832031 31.09008789 C13.61397461 31.08098389 12.44962891 31.07187988 11.25 31.0625 C7.5375 31.041875 3.825 31.02125 0 31 C0 20.77 0 10.54 0 0 Z " fill="#0B2233" transform="translate(416,372)"/>
<path d="M0 0 C0.66 0.33 1.32 0.66 2 1 C0.80117188 2.38058594 0.80117188 2.38058594 -0.421875 3.7890625 C-11.70142639 16.78634723 -22.90145905 29.84779203 -34 43 C-37.25874028 41.5850325 -39.28050344 39.90163112 -41.6796875 37.296875 C-42.36160156 36.56339844 -43.04351562 35.82992187 -43.74609375 35.07421875 C-44.79990234 33.92373047 -44.79990234 33.92373047 -45.875 32.75 C-47.26735518 31.24398317 -48.66057054 29.7387611 -50.0546875 28.234375 C-50.71952148 27.51314453 -51.38435547 26.79191406 -52.06933594 26.04882812 C-53.83768704 24.17224714 -55.65414754 22.36974715 -57.5078125 20.578125 C-60 18 -60 18 -60 16 C-59.4330542 15.93530518 -58.8661084 15.87061035 -58.28198242 15.80395508 C-37.80790838 13.40408625 -18.55657106 9.27828553 0 0 Z " fill="#0B2435" transform="translate(493,535)"/>
<path d="M0 0 C9.9 0.33 19.8 0.66 30 1 C30.33 7.93 30.66 14.86 31 22 C36.28 22 41.56 22 47 22 C47.33 15.07 47.66 8.14 48 1 C51.96 1 55.92 1 60 1 C59.67 7.6 59.34 14.2 59 21 C58.67 21 58.34 21 58 21 C58 15.06 58 9.12 58 3 C55.36 3 52.72 3 50 3 C50.02320313 4.18078125 50.04640625 5.3615625 50.0703125 6.578125 C50.08907497 8.13541033 50.10727466 9.69270252 50.125 11.25 C50.14175781 12.02730469 50.15851563 12.80460937 50.17578125 13.60546875 C50.23866553 20.96292928 50.23866553 20.96292928 48 24 C45.06077067 25.46961466 42.39591028 25.20919862 39.125 25.25 C37.89007813 25.27578125 36.65515625 25.3015625 35.3828125 25.328125 C32 25 32 25 29.5703125 24.08984375 C26.91229245 20.55242901 27.58716077 16.59329274 27.75 12.3125 C27.76804687 11.41982422 27.78609375 10.52714844 27.8046875 9.60742188 C27.85182241 7.40386496 27.91759343 5.20247399 28 3 C27.15405273 3.00785522 27.15405273 3.00785522 26.29101562 3.01586914 C23.69402211 3.03687267 21.09704656 3.04973362 18.5 3.0625 C17.613125 3.07087891 16.72625 3.07925781 15.8125 3.08789062 C10.44176914 3.10763596 5.31366337 2.78835893 0 2 C0 1.34 0 0.68 0 0 Z " fill="#0B1729" transform="translate(368,481)"/>
<path d="M0 0 C0.33 0 0.66 0 1 0 C1.33 9.9 1.66 19.8 2 30 C9.59 29.67 17.18 29.34 25 29 C24.67 29.66 24.34 30.32 24 31 C21.05868109 31.98043964 19.17498335 32.11621202 16.11328125 32.09765625 C15.26805908 32.09515869 14.42283691 32.09266113 13.55200195 32.09008789 C12.48296631 32.08098389 11.41393066 32.07187988 10.3125 32.0625 C5.2078125 32.0315625 5.2078125 32.0315625 0 32 C0 21.44 0 10.88 0 0 Z " fill="#0C1323" transform="translate(488,708)"/>
<path d="M0 0 C14.57142857 12.14285714 14.57142857 12.14285714 18 19 C13.82898227 17.41244952 11.31257615 14.32557564 8.4375 11.0625 C4.90136349 7.05649539 4.90136349 7.05649539 1.16015625 3.24609375 C0 2 0 2 0 0 Z " fill="#01C5C8" transform="translate(434,554)"/>
<path d="M0 0 C3.96 0 7.92 0 12 0 C12 0.33 12 0.66 12 1 C9.03 1 6.06 1 3 1 C3.72316406 1.79664063 3.72316406 1.79664063 4.4609375 2.609375 C5.09257812 3.31578125 5.72421875 4.0221875 6.375 4.75 C7.00148438 5.44609375 7.62796875 6.1421875 8.2734375 6.859375 C9.87505183 8.84508688 10.96520068 10.67954093 12 13 C7.82556637 9.49925018 3.6854506 6.02049157 0 2 C0 1.34 0 0.68 0 0 Z " fill="#0C1222" transform="translate(433,551)"/>
<path d="M0 0 C2.77931691 0.53434609 5.45091366 1.17833861 8.15234375 2.01953125 C8.15234375 2.34953125 8.15234375 2.67953125 8.15234375 3.01953125 C7.56066406 2.96152344 6.96898437 2.90351562 6.359375 2.84375 C0.77267599 2.51705047 0.77267599 2.51705047 -3.91015625 5.51953125 C-4.86921875 6.75703125 -4.86921875 6.75703125 -5.84765625 8.01953125 C-6.83765625 7.68953125 -7.82765625 7.35953125 -8.84765625 7.01953125 C-4.80909123 0.03298416 -4.80909123 0.03298416 0 0 Z " fill="#0B1526" transform="translate(273.84765625,585.98046875)"/>
<path d="M0 0 C-1.53643852 3.68069887 -3.78150945 5.98775204 -6.625 8.75 C-7.85089844 9.94882812 -7.85089844 9.94882812 -9.1015625 11.171875 C-9.72804688 11.77515625 -10.35453125 12.3784375 -11 13 C-11 8.89253434 -9.36039564 7.80245139 -6.625 4.8125 C-5.81289063 3.91144531 -5.00078125 3.01039063 -4.1640625 2.08203125 C-2 0 -2 0 0 0 Z " fill="#00C5C8" transform="translate(486,548)"/>
<path d="M0 0 C0.66 0.33 1.32 0.66 2 1 C-0.64 3.97 -3.28 6.94 -6 10 C-6 7 -6 7 -5 5 C-5.66 4.67 -6.32 4.34 -7 4 C-1.7265625 0.77734375 -1.7265625 0.77734375 0 0 Z " fill="#0C1727" transform="translate(493,535)"/>
<path d="M0 0 C0.99 0.33 1.98 0.66 3 1 C-0.3 4.3 -3.6 7.6 -7 11 C-7 7.22089522 -6.00296038 6.53893899 -3.5 3.8125 C-2.8503125 3.09707031 -2.200625 2.38164063 -1.53125 1.64453125 C-1.0259375 1.10183594 -0.520625 0.55914063 0 0 Z " fill="#0C1727" transform="translate(237,709)"/>
<path d="M0 0 C2.74277578 3.19990508 4.6302836 6.00499382 6 10 C4.35 9.67 2.7 9.34 1 9 C0.67 6.03 0.34 3.06 0 0 Z " fill="#0D1E2E" transform="translate(789,729)"/>
<path d="M0 0 C0.33 0.66 0.66 1.32 1 2 C-0.09966775 3.29549899 -1.20491801 4.58626071 -2.3125 5.875 C-2.92738281 6.59429688 -3.54226562 7.31359375 -4.17578125 8.0546875 C-6 10 -6 10 -9 12 C-7.55575365 8.76138697 -5.74227753 6.38030837 -3.375 3.75 C-2.74335938 3.04359375 -2.11171875 2.3371875 -1.4609375 1.609375 C-0.97882813 1.07828125 -0.49671875 0.5471875 0 0 Z " fill="#0D1526" transform="translate(257,603)"/>
<path d="M0 0 C1.9375 0.6875 1.9375 0.6875 4 2 C5 4.375 5 4.375 5 7 C3.0625 9.3125 3.0625 9.3125 1 11 C0.34 10.67 -0.32 10.34 -1 10 C0.32 8.02 1.64 6.04 3 4 C2.01 2.68 1.02 1.36 0 0 Z " fill="#00CBCE" transform="translate(751,234)"/>
<path d="M0 0 C0.33 0.99 0.66 1.98 1 3 C-0.98 4.98 -2.96 6.96 -5 9 C-5.66 8.67 -6.32 8.34 -7 8 C-4.69 5.36 -2.38 2.72 0 0 Z " fill="#00C7CA" transform="translate(742,253)"/>
<path d="M0 0 C0.99 0 1.98 0 3 0 C3.33 0.99 3.66 1.98 4 3 C7.51190809 4.22969878 7.51190809 4.22969878 11 5 C11 5.33 11 5.66 11 6 C4.63636364 6.48951049 4.63636364 6.48951049 1.5625 4.125 C0 2 0 2 0 0 Z " fill="#00CDCF" transform="translate(223,621)"/>
<path d="M0 0 C0.66 0.99 1.32 1.98 2 3 C-0.31 4.65 -2.62 6.3 -5 8 C-5 5 -5 5 -2.5 2.3125 C-1.675 1.549375 -0.85 0.78625 0 0 Z " fill="#0C1829" transform="translate(323,530)"/>
<path d="M0 0 C1.1092904 3.32787119 1.01557588 4.6993784 0 8 C-0.99 8.66 -1.98 9.32 -3 10 C-2.69201674 8.51988629 -2.378482 7.04092675 -2.0625 5.5625 C-1.88847656 4.73878906 -1.71445312 3.91507812 -1.53515625 3.06640625 C-1 1 -1 1 0 0 Z " fill="#0A1928" transform="translate(558,455)"/>
<path d="M0 0 C0.33 0.99 0.66 1.98 1 3 C-1.31 4.98 -3.62 6.96 -6 9 C-4.25618453 5.51236907 -2.47193291 2.96631949 0 0 Z " fill="#0B1727" transform="translate(227,721)"/>
<path d="M0 0 C0.33 0.99 0.66 1.98 1 3 C-0.62339805 4.70884005 -2.29319053 6.37446717 -4 8 C-4.66 8 -5.32 8 -6 8 C-4.55746343 4.63408134 -2.66735273 2.48952921 0 0 Z " fill="#0B1628" transform="translate(473,592)"/>
<path d="M0 0 C0 3 0 3 -2.5 5.6875 C-3.325 6.450625 -4.15 7.21375 -5 8 C-5 5 -5 5 -2.5 2.3125 C-1.675 1.549375 -0.85 0.78625 0 0 Z " fill="#00C3C6" transform="translate(661,344)"/>
</svg>
